<?xml version="1.0" encoding="utf-8"?>
<!-- Generator: Adobe Illustrator 18.1.1, SVG Export Plug-In . SVG Version: 6.00 Build 0)  -->
<!DOCTYPE svg PUBLIC "-//W3C//DTD SVG 1.1//EN" "http://www.w3.org/Graphics/SVG/1.1/DTD/svg11.dtd">
<svg version="1.1" id="Layer_1" xmlns="http://www.w3.org/2000/svg" xmlns:xlink="http://www.w3.org/1999/xlink" x="0px" y="0px"
	 viewBox="0 0 128 128" enable-background="new 0 0 128 128" xml:space="preserve">
<g enable-background="new    ">
	<g>
		<defs>
			<rect id="SVGID_1_" x="18.5" y="18.3" width="90" height="104.7"/>
		</defs>
		<clipPath id="SVGID_2_">
			<use xlink:href="#SVGID_1_"  overflow="visible"/>
		</clipPath>
		<g clip-path="url(#SVGID_2_)">
			<defs>
				<rect id="SVGID_3_" x="-89.5" y="-2053.4" width="2235.3" height="8551.6"/>
			</defs>
			<clipPath id="SVGID_4_">
				<use xlink:href="#SVGID_3_"  overflow="visible"/>
			</clipPath>
			<g clip-path="url(#SVGID_4_)">
				<defs>
					<path id="SVGID_5_" d="M48.3,22.1c22.7-8.7,48.1,2.6,56.8,25.3c8.7,22.7-2.6,48.1-25.3,56.8C57.2,113,31.7,101.6,23,79
						C14.3,56.3,25.6,30.8,48.3,22.1"/>
				</defs>
				<clipPath id="SVGID_6_">
					<use xlink:href="#SVGID_5_"  overflow="visible"/>
				</clipPath>
				<g clip-path="url(#SVGID_6_)">
					<defs>
						<rect id="SVGID_7_" x="18.5" y="18.3" width="90" height="104.7"/>
					</defs>
					<clipPath id="SVGID_8_">
						<use xlink:href="#SVGID_7_"  overflow="visible"/>
					</clipPath>
					<rect x="11.9" y="11" clip-path="url(#SVGID_8_)" fill="#FFDE44" width="104.4" height="104.4"/>
				</g>
			</g>
		</g>
		<g clip-path="url(#SVGID_2_)">
			<defs>
				<rect id="SVGID_9_" x="-89.5" y="-2053.4" width="2235.3" height="8551.6"/>
			</defs>
			<clipPath id="SVGID_10_">
				<use xlink:href="#SVGID_9_"  overflow="visible"/>
			</clipPath>
			<g clip-path="url(#SVGID_10_)">
				<defs>
					<polyline id="SVGID_11_" points="86.9,4 81,4 81,46.6 56.2,46.6 56.2,5.1 50.2,5.1 50.2,46.6 17.4,46.6 17.4,52.6 50.2,52.6 
						50.2,71.7 -8.7,71.7 -8.7,77.6 50.2,77.6 50.2,117.4 56.2,117.4 56.2,52.6 81,52.6 81,122.3 86.9,122.3 86.9,52.6 112.3,52.6 
						112.3,46.6 86.9,46.6 86.9,4 					"/>
				</defs>
				<clipPath id="SVGID_12_">
					<use xlink:href="#SVGID_11_"  overflow="visible"/>
				</clipPath>
				<g clip-path="url(#SVGID_12_)">
					<defs>
						<rect id="SVGID_13_" x="18.5" y="18.3" width="90" height="104.7"/>
					</defs>
					<clipPath id="SVGID_14_">
						<use xlink:href="#SVGID_13_"  overflow="visible"/>
					</clipPath>
					<g clip-path="url(#SVGID_14_)" enable-background="new    ">
						<g>
							<defs>
								<rect id="SVGID_15_" x="18.5" y="18.3" width="90" height="90"/>
							</defs>
							<clipPath id="SVGID_16_">
								<use xlink:href="#SVGID_15_"  overflow="visible"/>
							</clipPath>
							<g clip-path="url(#SVGID_16_)">
								<defs>
									<path id="SVGID_17_" d="M108.1,62.8c0.2,24.3-19.3,44.2-43.6,44.4c-24.3,0.2-44.2-19.3-44.4-43.6
										c-0.2-24.3,19.3-44.2,43.6-44.4C88,19,107.8,38.5,108.1,62.8"/>
								</defs>
								<clipPath id="SVGID_18_">
									<use xlink:href="#SVGID_17_"  overflow="visible"/>
								</clipPath>
								<g clip-path="url(#SVGID_18_)">
									<defs>
										<rect id="SVGID_19_" x="18.5" y="18.3" width="90" height="104.7"/>
									</defs>
									<clipPath id="SVGID_20_">
										<use xlink:href="#SVGID_19_"  overflow="visible"/>
									</clipPath>
									<rect x="11.9" y="11" clip-path="url(#SVGID_20_)" fill="#EEEEEE" width="104.3" height="104.3"/>
								</g>
							</g>
						</g>
					</g>
				</g>
			</g>
		</g>
		<g clip-path="url(#SVGID_2_)">
			<defs>
				<rect id="SVGID_21_" x="-89.5" y="-2053.4" width="2235.3" height="8551.6"/>
			</defs>
			<clipPath id="SVGID_22_">
				<use xlink:href="#SVGID_21_"  overflow="visible"/>
			</clipPath>
			<g clip-path="url(#SVGID_22_)">
				<defs>
					<polyline id="SVGID_23_" points="15.2,46.3 50.5,46.3 50.5,15.2 15.2,46.3 					"/>
				</defs>
				<clipPath id="SVGID_24_">
					<use xlink:href="#SVGID_23_"  overflow="visible"/>
				</clipPath>
				<g clip-path="url(#SVGID_24_)">
					<defs>
						<rect id="SVGID_25_" x="18.5" y="18.3" width="90" height="104.7"/>
					</defs>
					<clipPath id="SVGID_26_">
						<use xlink:href="#SVGID_25_"  overflow="visible"/>
					</clipPath>
					<g clip-path="url(#SVGID_26_)" enable-background="new    ">
						<g>
							<defs>
								<rect id="SVGID_27_" x="18.5" y="18.3" width="32.7" height="29.5"/>
							</defs>
							<clipPath id="SVGID_28_">
								<use xlink:href="#SVGID_27_"  overflow="visible"/>
							</clipPath>
							<g clip-path="url(#SVGID_28_)">
								<defs>
									<path id="SVGID_29_" d="M108,62.8c0.2,24.3-19.3,44.2-43.6,44.4c-24.3,0.2-44.2-19.3-44.4-43.6
										c-0.2-24.3,19.3-44.2,43.6-44.4S107.8,38.5,108,62.8"/>
								</defs>
								<clipPath id="SVGID_30_">
									<use xlink:href="#SVGID_29_"  overflow="visible"/>
								</clipPath>
								<g clip-path="url(#SVGID_30_)">
									<defs>
										<rect id="SVGID_31_" x="18.5" y="18.3" width="32.7" height="29.5"/>
									</defs>
									<clipPath id="SVGID_32_">
										<use xlink:href="#SVGID_31_"  overflow="visible"/>
									</clipPath>
									<rect x="11.9" y="11" clip-path="url(#SVGID_32_)" fill="#FFDE44" width="104.3" height="104.3"/>
								</g>
							</g>
						</g>
					</g>
				</g>
			</g>
		</g>
		<g clip-path="url(#SVGID_2_)">
			<defs>
				<rect id="SVGID_33_" x="-89.5" y="-2053.4" width="2235.3" height="8551.6"/>
			</defs>
			<clipPath id="SVGID_34_">
				<use xlink:href="#SVGID_33_"  overflow="visible"/>
			</clipPath>
			<g clip-path="url(#SVGID_34_)">
				<defs>
					<polyline id="SVGID_35_" points="56.3,12.2 81,12.2 81,107.6 56.3,107.6 					"/>
				</defs>
				<clipPath id="SVGID_36_">
					<use xlink:href="#SVGID_35_"  overflow="visible"/>
				</clipPath>
				<g clip-path="url(#SVGID_36_)">
					<defs>
						<rect id="SVGID_37_" x="18.5" y="18.3" width="90" height="104.7"/>
					</defs>
					<clipPath id="SVGID_38_">
						<use xlink:href="#SVGID_37_"  overflow="visible"/>
					</clipPath>
					<g clip-path="url(#SVGID_38_)" enable-background="new    ">
						<g>
							<defs>
								<rect id="SVGID_39_" x="56.1" y="18.3" width="26.2" height="90"/>
							</defs>
							<clipPath id="SVGID_40_">
								<use xlink:href="#SVGID_39_"  overflow="visible"/>
							</clipPath>
							<g clip-path="url(#SVGID_40_)">
								<defs>
									<path id="SVGID_41_" d="M48.4,22.2c22.7-8.7,48.1,2.6,56.8,25.3c8.7,22.7-2.6,48.1-25.3,56.8c-22.7,8.7-48.1-2.6-56.8-25.3
										C14.4,56.4,25.7,30.9,48.4,22.2"/>
								</defs>
								<clipPath id="SVGID_42_">
									<use xlink:href="#SVGID_41_"  overflow="visible"/>
								</clipPath>
								<g clip-path="url(#SVGID_42_)">
									<defs>
										<rect id="SVGID_43_" x="56.1" y="18.3" width="26.2" height="90"/>
									</defs>
									<clipPath id="SVGID_44_">
										<use xlink:href="#SVGID_43_"  overflow="visible"/>
									</clipPath>
									<rect x="12" y="11.1" clip-path="url(#SVGID_44_)" fill="#3F8CF4" width="104.4" height="104.4"/>
								</g>
							</g>
						</g>
					</g>
				</g>
			</g>
		</g>
		<g clip-path="url(#SVGID_2_)">
			<defs>
				<rect id="SVGID_45_" x="-89.5" y="-2053.4" width="2235.3" height="8551.6"/>
			</defs>
			<clipPath id="SVGID_46_">
				<use xlink:href="#SVGID_45_"  overflow="visible"/>
			</clipPath>
			<g clip-path="url(#SVGID_46_)">
				<defs>
					<path id="SVGID_47_" d="M41.8,75.3c11.6-14.1,33-14.1,44.6,0c8.6,10.4,8.6,25.8,0,36.3c-11.6,14.1-33,14.1-44.6,0
						C33.2,101.1,33.2,85.7,41.8,75.3"/>
				</defs>
				<clipPath id="SVGID_48_">
					<use xlink:href="#SVGID_47_"  overflow="visible"/>
				</clipPath>
				<g clip-path="url(#SVGID_48_)">
					<defs>
						<rect id="SVGID_49_" x="18.5" y="18.3" width="90" height="104.7"/>
					</defs>
					<clipPath id="SVGID_50_">
						<use xlink:href="#SVGID_49_"  overflow="visible"/>
					</clipPath>
					<rect x="27.2" y="56.5" clip-path="url(#SVGID_50_)" fill="#DC493E" width="73.8" height="73.8"/>
				</g>
			</g>
		</g>
		<g clip-path="url(#SVGID_2_)">
			<defs>
				<rect id="SVGID_51_" x="-89.5" y="-2053.4" width="2235.3" height="8551.6"/>
			</defs>
			<clipPath id="SVGID_52_">
				<use xlink:href="#SVGID_51_"  overflow="visible"/>
			</clipPath>
			<g clip-path="url(#SVGID_52_)">
				<defs>
					<polyline id="SVGID_53_" points="48.3,106.3 64.2,75.3 80,106.3 64.2,102.2 48.3,106.3 					"/>
				</defs>
				<clipPath id="SVGID_54_">
					<use xlink:href="#SVGID_53_"  overflow="visible"/>
				</clipPath>
				<g clip-path="url(#SVGID_54_)">
					<defs>
						<rect id="SVGID_55_" x="18.5" y="18.3" width="90" height="104.7"/>
					</defs>
					<clipPath id="SVGID_56_">
						<use xlink:href="#SVGID_55_"  overflow="visible"/>
					</clipPath>
					<rect x="40.1" y="67.1" clip-path="url(#SVGID_56_)" fill="#812A28" width="48.1" height="47.4"/>
				</g>
			</g>
		</g>
		<g clip-path="url(#SVGID_2_)">
			<defs>
				<rect id="SVGID_57_" x="-89.5" y="-2053.4" width="2235.3" height="8551.6"/>
			</defs>
			<clipPath id="SVGID_58_">
				<use xlink:href="#SVGID_57_"  overflow="visible"/>
			</clipPath>
			<g clip-path="url(#SVGID_58_)">
				<defs>
					<path id="SVGID_59_" d="M87,19.9v26.9h26.5L97.5,30.9C97.5,30.9,86.4,19.9,87,19.9"/>
				</defs>
				<clipPath id="SVGID_60_">
					<use xlink:href="#SVGID_59_"  overflow="visible"/>
				</clipPath>
				<g clip-path="url(#SVGID_60_)">
					<defs>
						<rect id="SVGID_61_" x="18.5" y="18.3" width="90" height="104.7"/>
					</defs>
					<clipPath id="SVGID_62_">
						<use xlink:href="#SVGID_61_"  overflow="visible"/>
					</clipPath>
					<g clip-path="url(#SVGID_62_)" enable-background="new    ">
						<g>
							<defs>
								<rect id="SVGID_63_" x="85.6" y="19.9" width="22.9" height="27.8"/>
							</defs>
							<clipPath id="SVGID_64_">
								<use xlink:href="#SVGID_63_"  overflow="visible"/>
							</clipPath>
							<g clip-path="url(#SVGID_64_)">
								<defs>
									<circle id="SVGID_65_" cx="65.2" cy="63.5" r="44"/>
								</defs>
								<clipPath id="SVGID_66_">
									<use xlink:href="#SVGID_65_"  overflow="visible"/>
								</clipPath>
								<g clip-path="url(#SVGID_66_)">
									<defs>
										<rect id="SVGID_67_" x="85.6" y="19.9" width="22.9" height="27.8"/>
									</defs>
									<clipPath id="SVGID_68_">
										<use xlink:href="#SVGID_67_"  overflow="visible"/>
									</clipPath>
									<rect x="13" y="11.3" clip-path="url(#SVGID_68_)" fill="#51AA4F" width="104.4" height="104.4"/>
								</g>
							</g>
						</g>
					</g>
				</g>
			</g>
		</g>
	</g>
</g>
</svg>
